<?xml version="1.0" standalone="no"?>
<!DOCTYPE svg PUBLIC "-//W3C//DTD SVG 20010904//EN"
 "http://www.w3.org/TR/2001/REC-SVG-20010904/DTD/svg10.dtd">
<svg version="1.0" xmlns="http://www.w3.org/2000/svg"
 width="500.000000pt" height="500.000000pt" viewBox="0 0 500.000000 500.000000"
 preserveAspectRatio="xMidYMid meet">
<metadata>
Created by potrace 1.14, written by Peter Selinger 2001-2017
</metadata>
<g transform="translate(0.000000,500.000000) scale(0.100000,-0.100000)"
fill="#000000" stroke="none">
<path d="M0 2500 l0 -2500 2500 0 2500 0 0 2500 0 2500 -2500 0 -2500 0 0
-2500z m2748 1122 c136 -43 234 -149 266 -289 l13 -58 7 44 c31 196 244 349
437 313 218 -40 347 -213 337 -449 l-3 -68 -130 0 -130 0 -5 90 c-3 50 -10 99
-17 111 -31 54 -124 74 -178 38 -48 -31 -55 -60 -55 -224 l0 -150 390 0 390 0
0 -130 0 -130 -390 0 -390 0 -2 -322 -3 -323 -130 0 -130 0 -3 323 -2 322
-260 0 -260 0 0 -325 0 -325 -130 0 -130 0 0 325 0 325 -64 0 -64 0 -4 -183
-3 -184 -39 -77 c-69 -135 -176 -206 -322 -214 -172 -9 -306 73 -381 234 -27
57 -28 66 -31 242 l-4 182 -194 0 -195 0 3 133 3 132 323 3 322 2 0 -277 c0
-245 2 -282 18 -312 36 -71 114 -95 180 -55 59 34 62 53 62 358 l0 276 98 0
c53 0 140 3 193 6 l97 7 4 166 c4 140 9 175 27 224 76 195 284 299 479 239z
m274 -2012 c3 -203 3 -205 26 -215 20 -9 22 -15 16 -50 -3 -22 -8 -41 -9 -43
-10 -11 -84 16 -107 39 l-28 27 0 221 0 221 23 4 c50 11 62 12 69 6 4 -3 9
-98 10 -210z m-1458 31 c87 -54 102 -213 28 -293 -33 -36 -81 -51 -137 -43
l-45 7 0 -61 0 -61 -50 0 -50 0 0 230 0 229 38 6 c20 4 42 8 47 11 28 11 136
-5 169 -25z m403 3 c61 -46 86 -118 71 -204 -14 -82 -68 -131 -150 -137 -108
-9 -188 69 -188 182 0 113 80 191 188 182 32 -2 63 -12 79 -23z m363 16 c65
-18 120 -98 120 -174 0 -123 -88 -204 -192 -178 l-38 10 0 -64 0 -64 -50 0
-50 0 0 230 0 230 23 4 c12 3 31 7 42 9 38 9 110 7 145 -3z m1010 -8 c57 -28
70 -67 70 -208 0 -98 -3 -123 -15 -127 -8 -4 -47 -9 -87 -13 -134 -12 -198 25
-198 113 0 36 6 50 28 73 30 30 98 47 148 37 21 -4 25 -1 22 17 -5 33 -51 50
-108 39 -48 -10 -48 -10 -54 20 -10 48 -7 55 22 60 69 10 139 6 172 -11z m349
12 c32 -7 38 -23 25 -70 -5 -18 -11 -20 -60 -16 l-54 4 0 -136 0 -136 -50 0
-50 0 0 169 0 169 48 10 c59 12 100 14 141 6z m-1069 -117 c0 -132 10 -157 66
-157 l34 0 0 135 0 135 50 0 50 0 0 -169 c0 -193 8 -177 -101 -187 -53 -5 -79
-3 -115 11 -69 26 -83 65 -84 223 l0 122 50 0 50 0 0 -113z"/>
<path d="M2581 3362 c-68 -34 -76 -56 -79 -223 l-4 -149 261 0 261 0 0 60 0
60 -130 0 -130 0 0 88 c0 102 -19 144 -75 168 -45 18 -63 18 -104 -4z"/>
<path d="M1410 1491 c0 -96 3 -101 59 -101 53 0 84 67 61 134 -14 42 -35 56
-84 56 l-36 0 0 -89z"/>
<path d="M1824 1559 c-14 -15 -19 -36 -19 -74 0 -62 23 -95 65 -95 45 0 63 21
68 83 6 73 -13 107 -62 107 -21 0 -40 -8 -52 -21z"/>
<path d="M2220 1491 c0 -96 3 -101 59 -101 48 0 67 38 63 123 -3 41 -35 67
-82 67 l-40 0 0 -89z"/>
<path d="M3223 1453 c-19 -7 -16 -60 3 -67 9 -3 31 -6 50 -6 33 0 34 1 34 40
0 40 0 40 -37 39 -21 0 -44 -3 -50 -6z"/>
</g>
</svg>
